<svg version="1.1" id="Layer_1" xmlns="http://www.w3.org/2000/svg" xmlns:xlink="http://www.w3.org/1999/xlink" x="0px" y="0px"
	 width="100%" viewBox="0 0 200 200" enable-background="new 0 0 200 200" xml:space="preserve">
<path fill="#FCFEFE" opacity="1.000000" stroke="none" 
	d="
M116.000000,201.000000 
	C77.357201,201.000000 39.214397,201.000000 1.035799,201.000000 
	C1.035799,134.398911 1.035799,67.797783 1.035799,1.098330 
	C67.559296,1.098330 134.118790,1.098330 200.839142,1.098330 
	C200.839142,67.666351 200.839142,134.333145 200.839142,201.000000 
	C172.798065,201.000000 144.649033,201.000000 116.000000,201.000000 
M54.256676,144.861389 
	C54.160240,144.226379 54.063808,143.591370 54.013405,142.464310 
	C54.013405,142.464310 53.771374,142.033463 53.840534,141.161285 
	C53.732983,138.372223 53.625431,135.583176 53.698101,131.918457 
	C53.647568,125.610474 53.597034,119.302490 53.777393,112.089554 
	C53.694435,107.061035 53.611477,102.032524 53.767624,96.178856 
	C53.650452,91.763649 53.533279,87.348450 53.612450,82.112595 
	C53.592926,76.413383 53.573406,70.714165 53.789551,64.130890 
	C53.725155,61.097252 53.660763,58.063614 53.845768,54.118256 
	C53.873947,46.168655 53.999348,38.217796 53.896175,30.269901 
	C53.827244,24.959826 51.565483,22.850979 46.230465,22.776281 
	C40.930996,22.702084 35.629543,22.684921 30.329834,22.735191 
	C24.086052,22.794415 22.689329,24.407248 22.828533,31.917849 
	C22.881628,42.944996 22.934725,53.972145 22.821547,65.919807 
	C22.898260,70.623329 22.974976,75.326843 22.746208,80.768745 
	C22.694794,106.888420 22.504696,133.008865 22.652142,159.127426 
	C22.722843,171.651810 30.262280,178.756561 42.772709,178.770172 
	C67.895966,178.797516 93.019279,178.767639 118.142570,178.764694 
	C131.952057,178.763077 145.762802,178.883194 159.570633,178.733597 
	C170.467819,178.615540 177.747665,171.577179 178.647110,160.123672 
	C178.544952,157.783249 178.442780,155.442810 178.656265,152.208694 
	C178.545090,148.486694 178.433914,144.764694 178.650131,140.152588 
	C178.542542,135.097839 178.434952,130.043106 178.638885,124.270309 
	C178.535065,123.511467 178.431259,122.752617 178.541748,121.499825 
	C178.469788,121.335419 178.397812,121.171005 178.650360,120.162148 
	C178.539032,117.769295 178.427704,115.376434 178.632095,112.144821 
	C178.520340,109.777817 178.408585,107.410812 178.632385,104.174171 
	C178.538712,100.461678 178.445038,96.749191 178.675278,92.156731 
	C178.562286,88.438240 178.449295,84.719757 178.647324,80.122948 
	C178.560532,75.763191 178.473740,71.403427 178.715775,66.150223 
	C178.753830,59.072044 178.939163,51.990162 178.761063,44.917427 
	C178.684540,41.878502 177.853638,38.858574 177.352448,35.383099 
	C177.352448,35.383099 177.093887,35.018333 177.136047,34.276016 
	C174.764435,31.502848 172.392822,28.729679 169.759308,25.477245 
	C169.261246,25.289270 168.763184,25.101297 167.647385,24.429359 
	C166.372131,24.164246 165.096878,23.899132 163.588394,23.666971 
	C163.588394,23.666971 163.571793,23.901949 162.933731,23.208616 
	C162.285004,23.080559 161.636414,22.841290 160.987549,22.840607 
	C141.710449,22.820328 122.433273,22.803925 103.156387,22.869562 
	C101.922562,22.873764 100.691002,23.542128 98.842064,23.666475 
	C98.227257,23.845577 97.612442,24.024679 96.329880,24.301142 
	C93.843475,26.508537 91.357063,28.715935 88.927498,30.911917 
	C88.927498,30.911917 88.878944,30.873047 88.246658,31.229595 
	C87.178154,34.502449 85.242958,37.760605 85.187149,41.050636 
	C84.905022,57.680473 85.111832,74.318604 84.950546,91.702789 
	C84.999893,92.470184 85.049232,93.237587 84.944977,94.878197 
	C84.457726,102.629356 86.905510,108.941269 94.285583,113.602821 
	C95.159531,113.926750 96.033478,114.250687 97.289459,114.986549 
	C97.835251,115.054909 98.381042,115.123268 99.598358,115.696342 
	C112.058167,115.798409 124.517975,115.900482 137.810989,116.194962 
	C139.517151,116.190788 141.223312,116.186623 143.433075,116.645744 
	C144.785080,118.713608 147.182037,120.724968 147.297440,122.859688 
	C147.676971,129.880280 147.229416,136.945602 146.682175,144.549515 
	C144.442184,145.755753 142.202194,146.961990 139.036240,148.029785 
	C136.884979,147.890854 134.733871,147.633987 132.582428,147.631226 
	C110.625633,147.603104 88.667763,147.725815 66.712830,147.522095 
	C62.511322,147.483109 58.321323,146.203873 54.256676,144.861389 
z"/>
<path fill="#2B769A" opacity="1.000000" stroke="none" 
	d="
M178.340622,153.102386 
	C178.442780,155.442810 178.544952,157.783249 178.153381,160.554626 
	C172.813629,163.826706 166.357330,164.259918 163.365189,170.256882 
	C165.086288,170.880844 166.507965,171.396255 167.929657,171.911652 
	C167.901672,172.453308 167.873688,172.994949 167.845703,173.536606 
	C165.657196,173.536606 163.445663,173.730530 161.287598,173.474213 
	C159.611267,173.275116 157.993347,172.049896 156.363724,172.078964 
	C146.249557,172.259506 136.139328,172.929016 126.028015,172.924255 
	C115.417038,172.919266 104.807556,172.118378 94.195213,172.058594 
	C73.991966,171.944778 53.787140,172.110825 33.567738,172.160706 
	C33.572742,172.084885 33.654087,170.852554 33.757992,169.278442 
	C31.807962,169.894455 30.267262,170.381165 28.337564,170.990753 
	C28.864075,167.405518 29.290359,164.502777 29.881321,160.478668 
	C28.070738,162.604355 27.123873,163.716019 26.177008,164.827667 
	C25.736994,164.746674 25.296982,164.665695 24.856968,164.584702 
	C24.574011,161.055862 24.291054,157.527008 24.364727,154.040100 
	C26.056910,155.607162 27.392462,157.132278 28.756563,158.689987 
	C30.257534,157.817429 31.758614,156.198105 33.235802,156.219604 
	C38.672874,156.298767 44.099407,157.220779 49.534786,157.268341 
	C57.168797,157.335144 64.808182,156.931519 72.442093,156.644699 
	C73.212067,156.615768 73.931610,155.890045 74.725487,155.695206 
	C75.822479,155.425980 76.977562,155.168289 78.091042,155.226334 
	C88.654312,155.777069 99.208038,156.602158 109.777275,156.909485 
	C115.208138,157.067429 120.664688,156.083359 126.109917,156.080032 
	C131.388474,156.076797 136.664139,156.822723 141.947495,156.933838 
	C144.556839,156.988693 147.187164,156.039124 149.796707,156.092758 
	C156.907791,156.238953 164.011520,156.836594 171.121170,156.895905 
	C173.075363,156.912231 175.040100,155.665375 177.233368,154.852051 
	C177.660965,154.210510 177.855209,153.715088 178.122223,153.190262 
	C178.194977,153.160873 178.340622,153.102386 178.340622,153.102386 
z"/>
<path fill="#2F8FA9" opacity="1.000000" stroke="none" 
	d="
M98.926834,115.191620 
	C98.381042,115.123268 97.835251,115.054909 96.986343,114.410019 
	C95.740135,113.571068 94.797043,113.308647 93.853951,113.046219 
	C86.905510,108.941269 84.457726,102.629356 85.419617,94.439087 
	C90.940262,91.922150 96.133705,92.783112 101.372726,92.903564 
	C114.182198,93.198090 127.003250,93.037178 139.818970,92.955330 
	C141.547745,92.944298 143.272675,92.333031 145.332932,91.999893 
	C146.111191,91.999962 146.555893,91.999832 147.257492,92.278610 
	C151.342270,92.704842 155.170181,92.852158 159.257446,92.892502 
	C160.011673,92.523605 160.506531,92.261688 161.295685,92.295288 
	C167.177124,92.739433 172.764252,92.888062 178.351379,93.036697 
	C178.445038,96.749191 178.538712,100.461678 178.164398,104.759109 
	C177.463867,107.229362 177.231323,109.114685 176.562759,111.000000 
	C173.196732,111.454063 170.278793,112.121262 167.332504,112.288315 
	C165.322525,112.402275 162.754471,112.501862 161.332428,111.424530 
	C155.732025,107.181740 150.072815,108.807777 144.305344,110.465042 
	C143.083237,110.816208 141.897232,111.702026 140.705246,111.682777 
	C132.907196,111.556839 125.110924,111.280418 117.316612,110.985741 
	C114.467331,110.878014 112.800148,111.867386 112.547508,114.976677 
	C109.735039,114.976601 107.365913,114.969307 104.823883,114.723297 
	C104.094696,114.326202 103.538422,114.167809 102.603432,114.009735 
	C101.125427,114.403908 100.026131,114.797760 98.926834,115.191620 
M87.799294,97.395004 
	C87.794952,97.787277 87.790611,98.179543 87.786278,98.571815 
	C87.949005,98.573227 88.253136,98.585625 88.253998,98.574455 
	C88.284332,98.184250 88.286102,97.791840 87.799294,97.395004 
M177.591751,97.516800 
	C177.591751,97.516800 177.481705,97.581566 177.591751,97.516800 
z"/>
<path fill="#2C7A9E" opacity="1.000000" stroke="none" 
	d="
M178.498444,152.655548 
	C178.340622,153.102386 178.194977,153.160873 177.854187,153.283630 
	C177.342255,153.936981 177.171127,154.467575 177.000000,154.998154 
	C175.040100,155.665375 173.075363,156.912231 171.121170,156.895905 
	C164.011520,156.836594 156.907791,156.238953 149.796707,156.092758 
	C147.187164,156.039124 144.556839,156.988693 141.947495,156.933838 
	C136.664139,156.822723 131.388474,156.076797 126.109917,156.080032 
	C120.664688,156.083359 115.208138,157.067429 109.777275,156.909485 
	C99.208038,156.602158 88.654312,155.777069 78.091042,155.226334 
	C76.977562,155.168289 75.822479,155.425980 74.725487,155.695206 
	C73.931610,155.890045 73.212067,156.615768 72.442093,156.644699 
	C64.808182,156.931519 57.168797,157.335144 49.534786,157.268341 
	C44.099407,157.220779 38.672874,156.298767 33.235802,156.219604 
	C31.758614,156.198105 30.257534,157.817429 28.756563,158.689987 
	C27.392462,157.132278 26.056910,155.607162 24.362293,153.582245 
	C24.004713,149.721420 24.006197,146.360397 24.390272,143.006348 
	C26.277313,144.375244 27.781763,145.737167 29.329792,147.138535 
	C29.925426,146.012726 30.694540,144.559006 30.895350,144.179443 
	C35.609909,144.876068 39.410191,145.978745 43.163975,145.838318 
	C46.833412,145.701050 50.521740,143.947418 52.942894,148.361694 
	C53.050774,148.558395 54.289028,148.135117 55.388195,148.046661 
	C60.628563,148.395737 65.480431,148.938797 70.334618,148.960434 
	C91.789955,149.056122 113.246025,149.021240 134.701645,148.965744 
	C136.455841,148.961197 138.208710,148.446075 139.962204,148.168213 
	C142.202194,146.961990 144.442184,145.755753 147.263000,144.195160 
	C149.960770,143.227020 152.052307,142.205826 154.199158,142.072067 
	C162.230545,141.571625 170.280029,141.361603 178.322739,141.042694 
	C178.433914,144.764694 178.545090,148.486694 178.498444,152.655548 
z"/>
<path fill="#36A9B8" opacity="1.000000" stroke="none" 
	d="
M85.147171,90.953827 
	C85.111832,74.318604 84.905022,57.680473 85.187149,41.050636 
	C85.242958,37.760605 87.178154,34.502449 88.599808,31.482409 
	C89.037407,33.209927 89.121849,34.684628 89.161591,35.378693 
	C91.867607,37.545170 94.052673,39.294563 95.229622,40.236843 
	C101.530258,39.971634 107.268288,39.722622 113.007027,39.491657 
	C115.934517,39.373840 118.863159,39.208336 121.791542,39.202751 
	C132.318726,39.182674 142.859283,38.910519 153.368210,39.357956 
	C159.410385,39.615211 165.536148,41.874954 170.473572,36.394825 
	C170.045181,36.125984 169.616776,35.857143 169.188385,35.588303 
	C170.126282,33.723503 171.064194,31.858706 172.298416,30.139225 
	C174.094452,31.862474 175.594162,33.440407 177.093887,35.018337 
	C177.093887,35.018333 177.352448,35.383099 177.036438,35.827827 
	C176.720444,40.984188 176.720444,45.695824 176.720444,51.349270 
	C173.684647,50.788876 171.202621,50.190098 168.685135,49.908360 
	C166.482437,49.661850 163.192825,48.825298 162.215988,49.905956 
	C159.544220,52.861675 157.508667,55.654537 152.803116,54.232452 
	C151.903549,53.960587 150.298752,56.022297 148.966705,56.619831 
	C147.788773,54.827896 146.710236,52.253498 145.530685,52.206345 
	C136.966858,51.863995 128.382339,52.001991 119.805641,52.100044 
	C119.207428,52.106884 118.619492,53.012745 117.741180,53.647217 
	C117.040298,53.891266 116.625008,53.988644 115.842422,54.056622 
	C114.984245,54.019241 114.493340,54.011265 113.847954,53.647850 
	C113.186913,50.055542 111.648956,48.656361 108.044731,48.898037 
	C102.347084,49.280083 96.589371,49.258579 90.887039,48.913185 
	C86.768860,48.663746 85.654053,50.253914 85.947960,54.058411 
	C86.228485,57.689621 86.033173,61.357590 86.035065,65.475174 
	C86.342392,71.290588 86.661682,76.640244 86.824867,82.352264 
	C86.161560,85.461037 85.654366,88.207436 85.147171,90.953827 
M114.412926,49.483303 
	C114.412926,49.483303 114.523102,49.417515 114.412926,49.483303 
z"/>
<path fill="#34779B" opacity="1.000000" stroke="none" 
	d="
M24.007683,142.999390 
	C24.006197,146.360397 24.004713,149.721420 24.005663,153.540298 
	C24.291054,157.527008 24.574011,161.055862 24.856968,164.584702 
	C25.296982,164.665695 25.736994,164.746674 26.177008,164.827667 
	C27.123873,163.716019 28.070738,162.604355 29.881321,160.478668 
	C29.290359,164.502777 28.864075,167.405518 28.337564,170.990753 
	C30.267262,170.381165 31.807962,169.894455 33.757992,169.278442 
	C33.654087,170.852554 33.572742,172.084885 33.567738,172.160706 
	C53.787140,172.110825 73.991966,171.944778 94.195213,172.058594 
	C104.807556,172.118378 115.417038,172.919266 126.028015,172.924255 
	C136.139328,172.929016 146.249557,172.259506 156.363724,172.078964 
	C157.993347,172.049896 159.611267,173.275116 161.287598,173.474213 
	C163.445663,173.730530 165.657196,173.536606 167.845703,173.536606 
	C167.873688,172.994949 167.901672,172.453308 167.929657,171.911652 
	C166.507965,171.396255 165.086288,170.880844 163.365189,170.256882 
	C166.357330,164.259918 172.813629,163.826706 178.018646,160.976669 
	C177.747665,171.577179 170.467819,178.615540 159.570633,178.733597 
	C145.762802,178.883194 131.952057,178.763077 118.142570,178.764694 
	C93.019279,178.767639 67.895966,178.797516 42.772709,178.770172 
	C30.262280,178.756561 22.722843,171.651810 22.652142,159.127426 
	C22.504696,133.008865 22.694794,106.888420 23.126301,80.401367 
	C23.506393,80.033997 23.960922,80.047989 23.962179,80.375381 
	C23.968973,81.139458 23.974510,81.576134 23.976177,82.480270 
	C23.978308,88.968063 23.984308,94.988380 23.988356,101.474678 
	C23.990482,106.961487 23.994562,111.982315 23.996748,117.419922 
	C23.996063,119.226303 23.997274,120.615906 23.997417,122.442291 
	C23.997620,124.917747 23.998894,126.956429 23.999130,129.395996 
	C23.999777,130.865921 24.001457,131.934967 24.001488,133.457703 
	C24.002453,136.940720 24.005068,139.970047 24.007683,142.999390 
z"/>
<path fill="#36ADBB" opacity="1.000000" stroke="none" 
	d="
M172.002090,29.993908 
	C171.064194,31.858706 170.126282,33.723503 169.188385,35.588303 
	C169.616776,35.857143 170.045181,36.125984 170.473572,36.394825 
	C165.536148,41.874954 159.410385,39.615211 153.368210,39.357956 
	C142.859283,38.910519 132.318726,39.182674 121.791542,39.202751 
	C118.863159,39.208336 115.934517,39.373840 113.007027,39.491657 
	C107.268288,39.722622 101.530258,39.971634 95.229622,40.236843 
	C94.052673,39.294563 91.867607,37.545170 89.161591,35.378693 
	C89.121849,34.684628 89.037407,33.209927 88.915955,31.304134 
	C88.878944,30.873047 88.927498,30.911917 89.261902,30.911160 
	C92.063416,28.674862 94.530525,26.439323 96.997635,24.203781 
	C97.612442,24.024679 98.227257,23.845577 99.665939,23.805389 
	C121.517143,23.930185 142.544464,23.916067 163.571793,23.901949 
	C163.571793,23.901949 163.588394,23.666971 163.942932,23.991943 
	C165.620026,24.515717 166.942581,24.714520 168.265121,24.913322 
	C168.763184,25.101297 169.261246,25.289270 169.907532,26.046631 
	C170.704544,27.741980 171.353317,28.867945 172.002090,29.993908 
z"/>
<path fill="#3395AB" opacity="1.000000" stroke="none" 
	d="
M85.048859,91.328308 
	C85.654366,88.207436 86.161560,85.461037 87.242813,82.303490 
	C92.699867,81.594788 97.596115,80.935631 102.461708,81.113754 
	C106.376083,81.257057 110.993835,79.063805 114.049835,83.560425 
	C114.366257,83.039268 114.682671,82.518112 115.322693,81.975861 
	C115.861069,81.930161 116.075851,81.905563 116.615860,82.037155 
	C118.892700,83.134155 120.809662,84.789658 122.802185,84.886215 
	C129.696686,85.220322 136.620346,85.113762 143.525772,84.920258 
	C144.842667,84.883347 146.127090,83.687439 147.687592,83.023361 
	C148.296890,83.014450 148.645096,83.008446 148.996521,83.402100 
	C149.000244,84.867561 149.000732,85.933357 149.000610,86.999580 
	C149.000000,87.000000 148.998779,87.001526 148.644653,87.038826 
	C147.193497,88.717316 146.096436,90.358505 144.999390,91.999695 
	C143.272675,92.333031 141.547745,92.944298 139.818970,92.955330 
	C127.003250,93.037178 114.182198,93.198090 101.372726,92.903564 
	C96.133705,92.783112 90.940262,91.922150 85.496414,94.002480 
	C85.049232,93.237587 84.999893,92.470184 85.048859,91.328308 
z"/>
<path fill="#2F89A6" opacity="1.000000" stroke="none" 
	d="
M112.990860,114.969452 
	C112.800148,111.867386 114.467331,110.878014 117.316612,110.985741 
	C125.110924,111.280418 132.907196,111.556839 140.705246,111.682777 
	C141.897232,111.702026 143.083237,110.816208 144.305344,110.465042 
	C150.072815,108.807777 155.732025,107.181740 161.332428,111.424530 
	C162.754471,112.501862 165.322525,112.402275 167.332504,112.288315 
	C170.278793,112.121262 173.196732,111.454063 176.582504,111.264999 
	C177.464294,112.014526 177.890335,112.499054 178.316360,112.983582 
	C178.427704,115.376434 178.539032,117.769295 178.318756,120.620087 
	C178.100601,121.383270 178.214035,121.688522 178.327454,121.993774 
	C178.431259,122.752617 178.535065,123.511467 178.111816,124.657425 
	C171.407318,125.972305 165.229874,126.900063 158.925568,127.846878 
	C156.762665,126.804329 153.522949,126.063713 151.554153,124.068817 
	C149.477798,121.964928 148.860260,118.496376 147.125610,115.950996 
	C146.142975,114.509117 144.171997,113.362541 142.929474,116.182449 
	C141.223312,116.186623 139.517151,116.190788 137.105484,115.799774 
	C128.596939,115.259537 120.793900,115.114494 112.990860,114.969452 
z"/>
<path fill="#2F99AE" opacity="1.000000" stroke="none" 
	d="
M149.001221,86.999161 
	C149.000732,85.933357 149.000244,84.867561 149.001160,82.951965 
	C149.006668,79.402390 149.010788,76.702614 149.229614,73.892548 
	C149.712082,73.582817 149.895737,73.323746 150.280060,72.731689 
	C150.862732,70.127548 151.160614,67.796761 151.653915,63.936752 
	C154.842209,71.754181 159.853607,67.726135 163.844193,67.880020 
	C168.210526,68.048409 172.611008,67.330841 177.218262,66.990967 
	C177.439911,66.982529 177.881256,66.937546 178.005859,66.972740 
	C178.130463,67.007935 178.386932,67.043671 178.386932,67.043671 
	C178.473740,71.403427 178.560532,75.763191 178.155273,80.653679 
	C176.078415,81.468582 174.126831,81.262741 172.974701,82.125038 
	C168.837509,85.221428 164.970505,88.678833 161.001389,91.999771 
	C160.506531,92.261688 160.011673,92.523605 159.107635,92.587311 
	C155.466034,90.592453 152.233627,88.795807 149.001221,86.999161 
z"/>
<path fill="#3193AB" opacity="1.000000" stroke="none" 
	d="
M23.990309,101.008705 
	C23.984308,94.988380 23.978308,88.968063 24.372044,82.476196 
	C28.067938,81.670105 31.386551,80.915863 34.655441,81.090782 
	C40.923912,81.426224 47.164154,82.289162 53.416107,82.933243 
	C53.533279,87.348450 53.650452,91.763649 53.320850,96.658615 
	C50.773380,98.399261 48.607399,100.826416 46.583630,100.713127 
	C39.023514,100.289925 31.525175,102.947075 23.990309,101.008705 
z"/>
<path fill="#309CB0" opacity="1.000000" stroke="none" 
	d="
M53.514278,82.522919 
	C47.164154,82.289162 40.923912,81.426224 34.655441,81.090782 
	C31.386551,80.915863 28.067938,81.670105 24.375916,82.008736 
	C23.974510,81.576134 23.968973,81.139458 23.976864,79.903999 
	C23.991974,74.406021 23.993654,69.706825 24.259869,64.784714 
	C24.883543,63.504566 25.242683,62.447338 25.380388,62.041965 
	C27.795473,62.041965 29.789907,61.995270 31.781137,62.055149 
	C33.754154,62.114483 36.139210,61.608849 37.619656,62.523148 
	C42.678936,65.647659 48.139843,64.918915 53.553886,65.014954 
	C53.573406,70.714165 53.592926,76.413383 53.514278,82.522919 
z"/>
<path fill="#2F83A1" opacity="1.000000" stroke="none" 
	d="
M143.181274,116.414093 
	C144.171997,113.362541 146.142975,114.509117 147.125610,115.950996 
	C148.860260,118.496376 149.477798,121.964928 151.554153,124.068817 
	C153.522949,126.063713 156.762665,126.804329 158.925568,127.846878 
	C165.229874,126.900063 171.407318,125.972305 177.956055,125.016449 
	C178.434952,130.043106 178.542542,135.097839 178.486435,140.597641 
	C170.280029,141.361603 162.230545,141.571625 154.199158,142.072067 
	C152.052307,142.205826 149.960770,143.227020 147.471710,143.917267 
	C147.229416,136.945602 147.676971,129.880280 147.297440,122.859688 
	C147.182037,120.724968 144.785080,118.713608 143.181274,116.414093 
M150.586563,128.516464 
	C150.586563,128.516464 150.476898,128.581680 150.586563,128.516464 
z"/>
<path fill="#2F8CA7" opacity="1.000000" stroke="none" 
	d="
M23.988356,101.474678 
	C31.525175,102.947075 39.023514,100.289925 46.583630,100.713127 
	C48.607399,100.826416 50.773380,98.399261 53.201294,97.071190 
	C53.611477,102.032524 53.694435,107.061035 53.295166,112.570557 
	C51.852432,115.192291 50.891930,117.333023 50.030426,119.253105 
	C42.825294,117.390442 35.724815,116.490974 29.638876,120.668221 
	C27.447794,119.244438 25.723219,118.123795 23.998644,117.003151 
	C23.994562,111.982315 23.990482,106.961487 23.988356,101.474678 
z"/>
<path fill="#3FA4B6" opacity="1.000000" stroke="none" 
	d="
M178.551361,66.596947 
	C178.386932,67.043671 178.130463,67.007935 178.014862,66.731384 
	C177.744598,66.205490 177.589935,65.956131 177.435287,65.706779 
	C177.289062,66.137650 177.142838,66.568520 176.996613,66.999390 
	C172.611008,67.330841 168.210526,68.048409 163.844193,67.880020 
	C159.853607,67.726135 154.842209,71.754181 151.653915,63.936752 
	C151.160614,67.796761 150.862732,70.127548 150.032043,72.727982 
	C149.499252,72.997627 149.003052,72.993523 149.002869,72.527069 
	C149.008224,67.042877 149.013779,62.025127 149.019318,57.007385 
	C150.298752,56.022297 151.903549,53.960587 152.803116,54.232452 
	C157.508667,55.654537 159.544220,52.861675 162.215988,49.905956 
	C163.192825,48.825298 166.482437,49.661850 168.685135,49.908360 
	C171.202621,50.190098 173.684647,50.788876 176.720444,51.349270 
	C176.720444,45.695824 176.720444,40.984188 177.042953,36.051285 
	C177.853638,38.858574 178.684540,41.878502 178.761063,44.917427 
	C178.939163,51.990162 178.753830,59.072044 178.551361,66.596947 
z"/>
<path fill="#2F85A3" opacity="1.000000" stroke="none" 
	d="
M23.996748,117.419922 
	C25.723219,118.123795 27.447794,119.244438 29.638876,120.668221 
	C35.724815,116.490974 42.825294,117.390442 50.030426,119.253105 
	C50.891930,117.333023 51.852432,115.192291 53.179718,113.023033 
	C53.597034,119.302490 53.647568,125.610474 53.197258,132.519058 
	C43.120895,135.833237 33.556511,135.784393 24.003138,133.004013 
	C24.001457,131.934967 23.999777,130.865921 24.278484,129.139313 
	C24.372076,126.322998 24.185280,124.164253 23.998486,122.005516 
	C23.997274,120.615906 23.996063,119.226303 23.996748,117.419922 
z"/>
<path fill="#34A2B4" opacity="1.000000" stroke="none" 
	d="
M53.671719,64.572922 
	C48.139843,64.918915 42.678936,65.647659 37.619656,62.523148 
	C36.139210,61.608849 33.754154,62.114483 31.781137,62.055149 
	C29.789907,61.995270 27.795473,62.041965 25.380388,62.041965 
	C25.242683,62.447338 24.883543,63.504566 24.008018,64.782570 
	C23.323696,65.001984 23.155758,65.000633 22.987822,64.999290 
	C22.934725,53.972145 22.881628,42.944996 23.150763,31.621838 
	C23.648718,31.888620 23.824442,32.451416 24.000198,33.479713 
	C24.002485,37.921635 23.907993,41.901218 24.037983,45.873459 
	C24.139694,48.981644 27.287151,50.586643 30.118448,50.409790 
	C37.394062,49.955326 44.706558,50.091255 52.006313,50.370308 
	C52.537666,52.176266 53.067017,53.603119 53.596371,55.029976 
	C53.660763,58.063614 53.725155,61.097252 53.671719,64.572922 
z"/>
<path fill="#2C80A0" opacity="1.000000" stroke="none" 
	d="
M24.001488,133.457703 
	C33.556511,135.784393 43.120895,135.833237 53.107147,132.956879 
	C53.625431,135.583176 53.732983,138.372223 53.670429,141.700348 
	C53.656010,142.478378 53.811695,142.717361 53.967377,142.956360 
	C54.063808,143.591370 54.160240,144.226379 54.229324,145.513458 
	C54.468239,146.777222 54.734501,147.388916 55.000763,148.000610 
	C54.289028,148.135117 53.050774,148.558395 52.942894,148.361694 
	C50.521740,143.947418 46.833412,145.701050 43.163975,145.838318 
	C39.410191,145.978745 35.609909,144.876068 30.895350,144.179443 
	C30.694540,144.559006 29.925426,146.012726 29.329792,147.138535 
	C27.781763,145.737167 26.277313,144.375244 24.390274,143.006348 
	C24.005068,139.970047 24.002453,136.940720 24.001488,133.457703 
z"/>
<path fill="#3395AB" opacity="1.000000" stroke="none" 
	d="
M161.295685,92.295288 
	C164.970505,88.678833 168.837509,85.221428 172.974701,82.125038 
	C174.126831,81.262741 176.078415,81.468582 177.999771,81.092834 
	C178.449295,84.719757 178.562286,88.438240 178.513336,92.596710 
	C172.764252,92.888062 167.177124,92.739433 161.295685,92.295288 
z"/>
<path fill="#49AEBC" opacity="1.000000" stroke="none" 
	d="
M53.721069,54.574116 
	C53.067017,53.603119 52.537666,52.176266 52.007431,49.903450 
	C51.359684,41.870483 50.913868,34.654545 49.887508,27.522146 
	C49.694313,26.179602 47.253716,24.282719 45.734695,24.167772 
	C40.473072,23.769617 35.160389,24.032473 29.867561,24.086130 
	C29.433319,24.090534 29.002321,24.414755 28.510639,24.614399 
	C28.576811,25.937592 28.638924,27.179653 28.716928,28.739450 
	C27.137566,28.626163 25.909010,28.538042 24.774755,28.456682 
	C24.501106,30.066778 24.250637,31.540495 24.000168,33.014210 
	C23.824442,32.451416 23.648718,31.888620 23.222879,31.156876 
	C22.689329,24.407248 24.086052,22.794415 30.329834,22.735191 
	C35.629543,22.684921 40.930996,22.702084 46.230465,22.776281 
	C51.565483,22.850979 53.827244,24.959826 53.896175,30.269901 
	C53.999348,38.217796 53.873947,46.168655 53.721069,54.574116 
z"/>
<path fill="#317998" opacity="1.000000" stroke="none" 
	d="
M55.388195,148.046661 
	C54.734501,147.388916 54.468239,146.777222 54.163994,145.831177 
	C58.321323,146.203873 62.511322,147.483109 66.712830,147.522095 
	C88.667763,147.725815 110.625633,147.603104 132.582428,147.631226 
	C134.733871,147.633987 136.884979,147.890854 139.499222,148.098999 
	C138.208710,148.446075 136.455841,148.961197 134.701645,148.965744 
	C113.246025,149.021240 91.789955,149.056122 70.334618,148.960434 
	C65.480431,148.938797 60.628563,148.395737 55.388195,148.046661 
z"/>
<path fill="#36A9B8" opacity="1.000000" stroke="none" 
	d="
M163.252762,23.555283 
	C142.544464,23.916067 121.517143,23.930185 99.974106,23.922913 
	C100.691002,23.542128 101.922562,22.873764 103.156387,22.869562 
	C122.433273,22.803925 141.710449,22.820328 160.987549,22.840607 
	C161.636414,22.841290 162.285004,23.080559 163.252762,23.555283 
z"/>
<path fill="#428799" opacity="1.000000" stroke="none" 
	d="
M112.547508,114.976677 
	C120.793900,115.114494 128.596939,115.259537 136.688873,115.703568 
	C124.517975,115.900482 112.058167,115.798409 99.262596,115.443977 
	C100.026131,114.797760 101.125427,114.403908 102.776283,114.250534 
	C103.884163,114.648018 104.440475,114.805016 104.996796,114.962006 
	C107.365913,114.969307 109.735039,114.976601 112.547508,114.976677 
z"/>
<path fill="#36A9B8" opacity="1.000000" stroke="none" 
	d="
M96.663757,24.252462 
	C94.530525,26.439323 92.063416,28.674862 89.233475,30.916866 
	C91.357063,28.715935 93.843475,26.508537 96.663757,24.252462 
z"/>
<path fill="#3FA4B6" opacity="1.000000" stroke="none" 
	d="
M172.298416,30.139225 
	C171.353317,28.867945 170.704544,27.741980 170.038483,26.286263 
	C172.392822,28.729679 174.764435,31.502848 177.114960,34.647179 
	C175.594162,33.440407 174.094452,31.862474 172.298416,30.139225 
z"/>
<path fill="#2F83A1" opacity="1.000000" stroke="none" 
	d="
M178.474228,112.564201 
	C177.890335,112.499054 177.464294,112.014526 177.018524,111.264999 
	C177.231323,109.114685 177.463867,107.229362 177.996628,105.193924 
	C178.408585,107.410812 178.520340,109.777817 178.474228,112.564201 
z"/>
<path fill="#3193AB" opacity="1.000000" stroke="none" 
	d="
M22.904684,65.459549 
	C23.155758,65.000633 23.323696,65.001984 23.743484,65.005486 
	C23.993654,69.706825 23.991974,74.406021 23.975609,79.576599 
	C23.960922,80.047989 23.506393,80.033997 23.279041,80.032181 
	C22.974976,75.326843 22.898260,70.623329 22.904684,65.459549 
z"/>
<path fill="#36A9B8" opacity="1.000000" stroke="none" 
	d="
M167.956253,24.671341 
	C166.942581,24.714520 165.620026,24.515717 164.059555,23.975468 
	C165.096878,23.899132 166.372131,24.164246 167.956253,24.671341 
z"/>
<path fill="#428799" opacity="1.000000" stroke="none" 
	d="
M94.069763,113.324524 
	C94.797043,113.308647 95.740135,113.571068 96.795326,114.204056 
	C96.033478,114.250687 95.159531,113.926750 94.069763,113.324524 
z"/>
<path fill="#2F83A1" opacity="1.000000" stroke="none" 
	d="
M178.434601,121.746796 
	C178.214035,121.688522 178.100601,121.383270 178.156494,121.042313 
	C178.397812,121.171005 178.469788,121.335419 178.434601,121.746796 
z"/>
<path fill="#49AEBC" opacity="1.000000" stroke="none" 
	d="
M53.990395,142.710327 
	C53.811695,142.717361 53.656010,142.478378 53.635849,142.136429 
	C53.771374,142.033463 54.013405,142.464310 53.990395,142.710327 
z"/>
<path fill="#34779B" opacity="1.000000" stroke="none" 
	d="
M177.233368,154.852051 
	C177.171127,154.467575 177.342255,153.936981 177.781418,153.313019 
	C177.855209,153.715088 177.660965,154.210510 177.233368,154.852051 
z"/>
<path fill="#3395AB" opacity="1.000000" stroke="none" 
	d="
M149.000610,86.999588 
	C152.233627,88.795807 155.466034,90.592453 158.848267,92.694290 
	C155.170181,92.852158 151.342270,92.704842 147.291504,91.935280 
	C147.712006,89.875870 148.355392,88.438698 148.998779,87.001526 
	C148.998779,87.001526 149.000000,87.000000 149.000610,86.999588 
z"/>
<path fill="#2F99AE" opacity="1.000000" stroke="none" 
	d="
M148.644653,87.038826 
	C148.355392,88.438698 147.712006,89.875870 147.034622,91.656372 
	C146.555893,91.999832 146.111191,91.999962 145.332916,91.999893 
	C146.096436,90.358505 147.193497,88.717316 148.644653,87.038826 
z"/>
<path fill="#3395AB" opacity="1.000000" stroke="none" 
	d="
M88.045609,97.397369 
	C88.286102,97.791840 88.284332,98.184250 88.253998,98.574455 
	C88.253136,98.585625 87.949005,98.573227 87.786278,98.571815 
	C87.790611,98.179543 87.794952,97.787277 88.045609,97.397369 
z"/>
<path fill="#2F89A6" opacity="1.000000" stroke="none" 
	d="
M104.823883,114.723297 
	C104.440475,114.805016 103.884163,114.648018 103.154991,114.250221 
	C103.538422,114.167809 104.094696,114.326202 104.823883,114.723297 
z"/>
<path fill="#3395AB" opacity="1.000000" stroke="none" 
	d="
M177.536728,97.549179 
	C177.481705,97.581566 177.591751,97.516800 177.536728,97.549179 
z"/>
<path fill="#F7FDFD" opacity="1.000000" stroke="none" 
	d="
M147.426498,83.026268 
	C146.127090,83.687439 144.842667,84.883347 143.525772,84.920258 
	C136.620346,85.113762 129.696686,85.220322 122.802185,84.886215 
	C120.809662,84.789658 118.892700,83.134155 116.593987,81.577576 
	C116.234489,72.003220 116.222099,63.044621 116.209702,54.086021 
	C116.625008,53.988644 117.040298,53.891266 118.176346,53.780758 
	C125.851898,53.797398 132.807755,53.762775 139.761169,53.877068 
	C145.448563,53.970554 147.429138,56.592205 147.252136,62.229404 
	C147.034714,69.153038 147.344574,76.093231 147.426498,83.026268 
z"/>
<path fill="#309CB0" opacity="1.000000" stroke="none" 
	d="
M114.999084,81.996948 
	C114.682671,82.518112 114.366257,83.039268 114.049835,83.560425 
	C110.993835,79.063805 106.376083,81.257057 102.461708,81.113754 
	C97.596115,80.935631 92.699867,81.594788 87.398926,81.941116 
	C86.661682,76.640244 86.342392,71.290588 86.411247,65.465607 
	C90.538719,64.336250 94.265350,63.589466 98.023811,63.075417 
	C99.458206,62.879234 100.976822,63.131824 102.437431,63.326843 
	C106.297661,63.842255 110.147148,64.438034 114.001312,65.450882 
	C114.334160,71.265602 114.666626,76.631279 114.999084,81.996948 
z"/>
<path fill="#32A2B4" opacity="1.000000" stroke="none" 
	d="
M114.000916,65.001831 
	C110.147148,64.438034 106.297661,63.842255 102.437431,63.326843 
	C100.976822,63.131824 99.458206,62.879234 98.023811,63.075417 
	C94.265350,63.589466 90.538719,64.336250 86.423218,64.999840 
	C86.033173,61.357590 86.228485,57.689621 85.947960,54.058411 
	C85.654053,50.253914 86.768860,48.663746 90.887039,48.913185 
	C96.589371,49.258579 102.347084,49.280083 108.044731,48.898037 
	C111.648956,48.656361 113.186913,50.055542 113.855484,54.053116 
	C114.011978,58.209827 114.006447,61.605827 114.000916,65.001831 
z"/>
<path fill="#3D9BAA" opacity="1.000000" stroke="none" 
	d="
M147.687592,83.023361 
	C147.344574,76.093231 147.034714,69.153038 147.252136,62.229404 
	C147.429138,56.592205 145.448563,53.970554 139.761169,53.877068 
	C132.807755,53.762775 125.851898,53.797398 118.461929,53.634087 
	C118.619492,53.012745 119.207428,52.106884 119.805641,52.100044 
	C128.382339,52.001991 136.966858,51.863995 145.530685,52.206345 
	C146.710236,52.253498 147.788773,54.827896 148.966705,56.619827 
	C149.013779,62.025127 149.008224,67.042877 149.004333,72.779465 
	C149.008957,73.666481 149.011948,73.834663 149.014923,74.002838 
	C149.010788,76.702614 149.006668,79.402390 148.997925,82.552307 
	C148.645096,83.008446 148.296890,83.014450 147.687592,83.023361 
z"/>
<path fill="#3D9BAA" opacity="1.000000" stroke="none" 
	d="
M114.001305,65.450882 
	C114.006447,61.605827 114.011978,58.209827 114.009979,54.408554 
	C114.493340,54.011265 114.984245,54.019241 115.842422,54.056625 
	C116.222099,63.044621 116.234489,72.003220 116.268753,81.421387 
	C116.075851,81.905563 115.861069,81.930161 115.322685,81.975853 
	C114.666626,76.631279 114.334160,71.265602 114.001305,65.450882 
z"/>
<path fill="#32A2B4" opacity="1.000000" stroke="none" 
	d="
M114.468018,49.450409 
	C114.523102,49.417515 114.412926,49.483303 114.468018,49.450409 
z"/>
<path fill="#2C80A0" opacity="1.000000" stroke="none" 
	d="
M23.997416,122.442291 
	C24.185280,124.164253 24.372076,126.322998 24.279520,128.738434 
	C23.998894,126.956429 23.997620,124.917747 23.997416,122.442291 
z"/>
<path fill="#3395AB" opacity="1.000000" stroke="none" 
	d="
M177.218262,66.990959 
	C177.142838,66.568520 177.289062,66.137650 177.435287,65.706779 
	C177.589935,65.956131 177.744598,66.205490 177.890259,66.696198 
	C177.881256,66.937546 177.439911,66.982529 177.218262,66.990959 
z"/>
<path fill="#3395AB" opacity="1.000000" stroke="none" 
	d="
M149.229614,73.892548 
	C149.011948,73.834663 149.008957,73.666481 149.004517,73.245911 
	C149.003052,72.993523 149.499252,72.997627 149.747253,73.001328 
	C149.895737,73.323746 149.712082,73.582817 149.229614,73.892548 
z"/>
<path fill="#2F89A6" opacity="1.000000" stroke="none" 
	d="
M150.531738,128.549072 
	C150.476898,128.581680 150.586563,128.516464 150.531738,128.549072 
z"/>
<path fill="#33A9B9" opacity="1.000000" stroke="none" 
	d="
M24.000198,33.479713 
	C24.250637,31.540495 24.501106,30.066778 24.774755,28.456682 
	C25.909010,28.538042 27.137566,28.626163 28.716928,28.739450 
	C28.638924,27.179653 28.576811,25.937592 28.510639,24.614399 
	C29.002321,24.414755 29.433319,24.090534 29.867561,24.086130 
	C35.160389,24.032473 40.473072,23.769617 45.734695,24.167772 
	C47.253716,24.282719 49.694313,26.179602 49.887508,27.522146 
	C50.913868,34.654545 51.359684,41.870483 52.005424,49.524353 
	C44.706558,50.091255 37.394062,49.955326 30.118448,50.409790 
	C27.287151,50.586643 24.139694,48.981644 24.037983,45.873459 
	C23.907993,41.901218 24.002485,37.921635 24.000198,33.479713 
M30.513132,26.763800 
	C31.152649,26.781397 31.792166,26.798994 32.431683,26.816589 
	C32.303890,26.289848 32.176094,25.763107 32.048302,25.236366 
	C31.467192,25.555529 30.886082,25.874689 30.513132,26.763800 
M30.438604,29.707066 
	C30.707855,29.989342 30.977106,30.271618 31.246355,30.553894 
	C31.363197,30.442274 31.587755,30.239735 31.581348,30.232147 
	C31.330044,29.934414 31.057714,29.654430 30.438604,29.707066 
z"/>
<path fill="#49AEBC" opacity="1.000000" stroke="none" 
	d="
M30.409052,26.478825 
	C30.886082,25.874689 31.467192,25.555529 32.048302,25.236366 
	C32.176094,25.763107 32.303890,26.289848 32.431683,26.816589 
	C31.792166,26.798994 31.152649,26.781397 30.409052,26.478825 
z"/>
<path fill="#49AEBC" opacity="1.000000" stroke="none" 
	d="
M30.613365,29.539597 
	C31.057714,29.654430 31.330044,29.934414 31.581348,30.232147 
	C31.587755,30.239735 31.363197,30.442274 31.246355,30.553894 
	C30.977106,30.271618 30.707855,29.989342 30.613365,29.539597 
z"/>
</svg>